<?xml version="1.0" standalone="no"?>
<!DOCTYPE svg PUBLIC "-//W3C//DTD SVG 20010904//EN"
 "http://www.w3.org/TR/2001/REC-SVG-20010904/DTD/svg10.dtd">
<svg version="1.0" xmlns="http://www.w3.org/2000/svg"
 width="640.000000pt" height="640.000000pt" viewBox="0 0 640.000000 640.000000"
 preserveAspectRatio="xMidYMid meet">

<g transform="translate(0.000000,640.000000) scale(0.100000,-0.100000)"
fill="#000000" stroke="none">
<path d="M854 4863 c-12 -2 -33 -16 -46 -31 l-26 -27 -3 -1645 c-4 -1591 -3
-1646 15 -1672 10 -16 34 -32 55 -38 25 -8 762 -10 2374 -8 l2339 3 23 27 23
27 4 1633 c3 1259 1 1640 -8 1665 -25 66 172 60 -2394 65 -1284 3 -2345 3
-2356 1z m4363 -217 c7 -5 -1955 -1634 -1980 -1643 -18 -6 -45 -9 -59 -6 -16
3 -419 332 -1005 820 -538 448 -985 821 -993 830 -13 13 218 14 2010 7 1114
-3 2026 -7 2027 -8z m-3603 -631 c330 -275 663 -552 740 -616 78 -64 260 -216
406 -337 146 -122 285 -231 310 -243 67 -33 170 -37 241 -10 58 22 57 22 1571
1289 285 237 520 432 523 432 3 0 4 -649 3 -1442 l-3 -1443 -610 -3 c-335 -2
-1331 0 -2212 4 l-1603 6 0 1445 c0 1370 1 1445 17 1432 10 -8 287 -239 617
-514z"/>
</g>
</svg>
